<svg width="66" height="66" viewBox="0 0 66 66" fill="none" xmlns="http://www.w3.org/2000/svg">
<circle cx="33" cy="33" r="32.5" fill="#E3D59C"/>
<path d="M24.3331 8.4668C34.2855 8.4668 43.8302 12.3718 50.8678 19.3228C57.9053 26.2739 61.8592 35.7016 61.8597 45.5321" stroke="#3D2C2E" stroke-width="0.997289" stroke-linecap="round" stroke-linejoin="round"/>
<path d="M1.14117 31.3753C1.14117 25.2997 3.5846 19.473 7.93394 15.1769C12.2833 10.8808 18.1822 8.46729 24.3331 8.46729" stroke="#3D2C2E" stroke-width="0.997289" stroke-linecap="round" stroke-linejoin="round"/>
<path d="M15.4739 45.5325C11.6724 45.5324 8.02658 44.0407 5.33853 41.3856C2.65047 38.7304 1.14034 35.1292 1.14034 31.3743" stroke="#3D2C2E" stroke-width="0.997289" stroke-linecap="round" stroke-linejoin="round"/>
<path d="M24.3331 36.7837C24.3331 37.9328 24.104 39.0706 23.6588 40.1322C23.2136 41.1937 22.5611 42.1583 21.7386 42.9708C20.0773 44.6118 17.8241 45.5336 15.4747 45.5336" stroke="#3D2C2E" stroke-width="0.997289" stroke-linecap="round" stroke-linejoin="round"/>
<path d="M18.8577 31.3752C20.3098 31.3753 21.7024 31.9451 22.7292 32.9593C23.7559 33.9736 24.3328 35.3492 24.3328 36.7835" stroke="#3D2C2E" stroke-width="0.997289" stroke-linecap="round" stroke-linejoin="round"/>
<path d="M15.4739 34.7175C15.4738 34.2786 15.5613 33.8439 15.7313 33.4384C15.9014 33.0329 16.1506 32.6644 16.4648 32.3541C16.779 32.0437 17.1521 31.7975 17.5626 31.6296C17.9732 31.4616 18.4132 31.3752 18.8575 31.3752" stroke="#3D2C2E" stroke-width="0.997289" stroke-linecap="round" stroke-linejoin="round"/>
<path d="M17.5676 36.7837C17.2929 36.7837 17.0208 36.7303 16.767 36.6264C16.5132 36.5226 16.2825 36.3704 16.0882 36.1785C15.894 35.9866 15.7399 35.7588 15.6347 35.5081C15.5296 35.2574 15.4754 34.9887 15.4754 34.7173" stroke="#3D2C2E" stroke-width="0.997289" stroke-linecap="round" stroke-linejoin="round"/>
<path d="M18.8575 35.5076C18.8575 35.8458 18.7215 36.1702 18.4794 36.4094C18.2372 36.6486 17.9088 36.783 17.5664 36.7831" stroke="#3D2C2E" stroke-width="0.997289" stroke-linecap="round" stroke-linejoin="round"/>
<path d="M18.0577 34.7175C18.27 34.7175 18.4737 34.8009 18.6238 34.9492C18.7739 35.0975 18.8583 35.2986 18.8583 35.5084" stroke="#3D2C2E" stroke-width="0.997289" stroke-linecap="round" stroke-linejoin="round"/>
<path d="M17.5676 35.2014C17.5676 35.0729 17.6193 34.9496 17.7113 34.8588C17.8033 34.7679 17.9281 34.7168 18.0582 34.7168" stroke="#3D2C2E" stroke-width="0.997289" stroke-linecap="round" stroke-linejoin="round"/>
<path d="M17.8774 35.5076C17.7952 35.5076 17.7164 35.4753 17.6583 35.4179C17.6001 35.3605 17.5675 35.2826 17.5675 35.2014" stroke="#3D2C2E" stroke-width="0.997289" stroke-linecap="round" stroke-linejoin="round"/>
<path d="M18.0577 35.3296C18.0577 35.353 18.0531 35.3762 18.044 35.3979C18.0349 35.4195 18.0216 35.4392 18.0048 35.4558C17.9881 35.4723 17.9681 35.4855 17.9462 35.4945C17.9243 35.5034 17.9008 35.508 17.8771 35.508" stroke="#3D2C2E" stroke-width="0.997289" stroke-linecap="round" stroke-linejoin="round"/>
<path d="M17.9281 35.2014C17.9624 35.2014 17.9953 35.2149 18.0195 35.2389C18.0437 35.2628 18.0574 35.2953 18.0574 35.3292" stroke="#3D2C2E" stroke-width="0.997289" stroke-linecap="round" stroke-linejoin="round"/>
<path d="M41.6669 57.5332C31.7145 57.5332 22.1698 53.6282 15.1322 46.6772C8.09466 39.7261 4.14076 30.2984 4.14026 20.4679" stroke="#3D2C2E" stroke-width="0.997289" stroke-linecap="round" stroke-linejoin="round"/>
<path d="M64.8588 34.6247C64.8588 40.7003 62.4154 46.527 58.0661 50.8231C53.7167 55.1192 47.8178 57.5327 41.6669 57.5327" stroke="#3D2C2E" stroke-width="0.997289" stroke-linecap="round" stroke-linejoin="round"/>
<path d="M50.5261 20.4675C54.3276 20.4676 57.9734 21.9593 60.6615 24.6144C63.3495 27.2696 64.8597 30.8708 64.8597 34.6257" stroke="#3D2C2E" stroke-width="0.997289" stroke-linecap="round" stroke-linejoin="round"/>
<path d="M41.6669 29.2163C41.6669 28.0672 41.896 26.9294 42.3412 25.8678C42.7864 24.8063 43.4389 23.8417 44.2614 23.0292C45.9227 21.3882 48.1759 20.4664 50.5253 20.4664" stroke="#3D2C2E" stroke-width="0.997289" stroke-linecap="round" stroke-linejoin="round"/>
<path d="M47.1423 34.6248C45.6902 34.6247 44.2976 34.0549 43.2708 33.0407C42.2441 32.0264 41.6672 30.6508 41.6672 29.2165" stroke="#3D2C2E" stroke-width="0.997289" stroke-linecap="round" stroke-linejoin="round"/>
<path d="M50.5261 31.2825C50.5262 31.7214 50.4387 32.1561 50.2687 32.5616C50.0986 32.9671 49.8494 33.3356 49.5352 33.6459C49.221 33.9563 48.8479 34.2025 48.4374 34.3704C48.0268 34.5384 47.5868 34.6248 47.1425 34.6248" stroke="#3D2C2E" stroke-width="0.997289" stroke-linecap="round" stroke-linejoin="round"/>
<path d="M48.4324 29.2163C48.7071 29.2163 48.9792 29.2697 49.233 29.3736C49.4868 29.4774 49.7175 29.6296 49.9118 29.8215C50.106 30.0134 50.2601 30.2412 50.3653 30.4919C50.4704 30.7426 50.5246 31.0113 50.5246 31.2827" stroke="#3D2C2E" stroke-width="0.997289" stroke-linecap="round" stroke-linejoin="round"/>
<path d="M47.1425 30.4924C47.1425 30.1542 47.2785 29.8298 47.5206 29.5906C47.7628 29.3514 48.0912 29.217 48.4336 29.2169" stroke="#3D2C2E" stroke-width="0.997289" stroke-linecap="round" stroke-linejoin="round"/>
<path d="M47.9423 31.2825C47.73 31.2825 47.5263 31.1991 47.3762 31.0508C47.2261 30.9025 47.1417 30.7014 47.1417 30.4916" stroke="#3D2C2E" stroke-width="0.997289" stroke-linecap="round" stroke-linejoin="round"/>
<path d="M48.4324 30.7986C48.4324 30.9271 48.3807 31.0504 48.2887 31.1412C48.1967 31.2321 48.0719 31.2832 47.9418 31.2832" stroke="#3D2C2E" stroke-width="0.997289" stroke-linecap="round" stroke-linejoin="round"/>
<path d="M48.1226 30.4924C48.2048 30.4924 48.2836 30.5247 48.3417 30.5821C48.3999 30.6395 48.4325 30.7174 48.4325 30.7986" stroke="#3D2C2E" stroke-width="0.997289" stroke-linecap="round" stroke-linejoin="round"/>
<path d="M47.9423 30.6704C47.9423 30.647 47.9469 30.6238 47.956 30.6021C47.9651 30.5805 47.9784 30.5608 47.9952 30.5442C48.0119 30.5277 48.0319 30.5145 48.0538 30.5055C48.0757 30.4966 48.0992 30.492 48.1229 30.492" stroke="#3D2C2E" stroke-width="0.997289" stroke-linecap="round" stroke-linejoin="round"/>
<path d="M48.0719 30.7986C48.0376 30.7986 48.0047 30.7851 47.9805 30.7611C47.9563 30.7372 47.9426 30.7047 47.9426 30.6708" stroke="#3D2C2E" stroke-width="0.997289" stroke-linecap="round" stroke-linejoin="round"/>
<g clip-path="url(#clip0_23_223)">
<path d="M57.5333 24.333C57.5333 34.2853 53.6283 43.8301 46.6773 50.8677C39.7262 57.9052 30.2986 61.8591 20.4681 61.8596" stroke="#3D2C2E" stroke-width="0.997289" stroke-linecap="round" stroke-linejoin="round"/>
<path d="M34.625 1.14104C40.7006 1.14104 46.5273 3.58448 50.8234 7.93382C55.1194 12.2832 57.533 18.1821 57.533 24.333" stroke="#3D2C2E" stroke-width="0.997289" stroke-linecap="round" stroke-linejoin="round"/>
<path d="M20.4676 15.4739C20.4677 11.6724 21.9594 8.02658 24.6146 5.33853C27.2697 2.65047 30.8709 1.14034 34.6259 1.14034" stroke="#3D2C2E" stroke-width="0.997289" stroke-linecap="round" stroke-linejoin="round"/>
<path d="M29.2166 24.333C28.0675 24.333 26.9297 24.1039 25.8681 23.6587C24.8065 23.2135 23.8419 22.561 23.0294 21.7384C21.3885 20.0772 20.4666 17.824 20.4666 15.4746" stroke="#3D2C2E" stroke-width="0.997289" stroke-linecap="round" stroke-linejoin="round"/>
<path d="M34.625 18.8577C34.625 20.3098 34.0551 21.7024 33.0409 22.7292C32.0267 23.7559 30.6511 24.3328 29.2167 24.3328" stroke="#3D2C2E" stroke-width="0.997289" stroke-linecap="round" stroke-linejoin="round"/>
<path d="M31.2827 15.474C31.7217 15.4739 32.1563 15.5614 32.5618 15.7314C32.9674 15.9015 33.3358 16.1507 33.6462 16.4649C33.9566 16.7791 34.2027 17.1522 34.3707 17.5627C34.5386 17.9733 34.625 18.4133 34.625 18.8577" stroke="#3D2C2E" stroke-width="0.997289" stroke-linecap="round" stroke-linejoin="round"/>
<path d="M29.2165 17.5676C29.2164 17.2929 29.2699 17.0208 29.3737 16.767C29.4775 16.5132 29.6297 16.2825 29.8216 16.0882C30.0135 15.894 30.2413 15.7399 30.492 15.6347C30.7427 15.5296 31.0115 15.4754 31.2828 15.4754" stroke="#3D2C2E" stroke-width="0.997289" stroke-linecap="round" stroke-linejoin="round"/>
<path d="M30.4926 18.8577C30.1543 18.8577 29.8299 18.7216 29.5907 18.4795C29.3515 18.2374 29.2171 17.9089 29.2171 17.5665" stroke="#3D2C2E" stroke-width="0.997289" stroke-linecap="round" stroke-linejoin="round"/>
<path d="M31.2827 18.0576C31.2827 18.2699 31.1994 18.4735 31.0511 18.6237C30.9027 18.7738 30.7016 18.8582 30.4919 18.8582" stroke="#3D2C2E" stroke-width="0.997289" stroke-linecap="round" stroke-linejoin="round"/>
<path d="M30.7986 17.5675C30.9271 17.5675 31.0504 17.6192 31.1412 17.7112C31.2321 17.8032 31.2832 17.928 31.2832 18.0581" stroke="#3D2C2E" stroke-width="0.997289" stroke-linecap="round" stroke-linejoin="round"/>
<path d="M30.4926 17.8774C30.4926 17.7952 30.5249 17.7164 30.5823 17.6583C30.6397 17.6001 30.7176 17.5675 30.7988 17.5675" stroke="#3D2C2E" stroke-width="0.997289" stroke-linecap="round" stroke-linejoin="round"/>
<path d="M30.6707 18.0576C30.6472 18.0576 30.624 18.0529 30.6024 18.0439C30.5807 18.0348 30.561 18.0215 30.5445 18.0047C30.5279 17.9879 30.5148 17.968 30.5058 17.9461C30.4968 17.9242 30.4922 17.9007 30.4922 17.877" stroke="#3D2C2E" stroke-width="0.997289" stroke-linecap="round" stroke-linejoin="round"/>
<path d="M30.7986 17.9281C30.7986 17.9624 30.7851 17.9953 30.7611 18.0195C30.7372 18.0437 30.7047 18.0574 30.6708 18.0574" stroke="#3D2C2E" stroke-width="0.997289" stroke-linecap="round" stroke-linejoin="round"/>
</g>
<g clip-path="url(#clip1_23_223)">
<path d="M8.46667 41.667C8.46667 31.7147 12.3717 22.1699 19.3227 15.1323C26.2738 8.09478 35.7014 4.14088 45.5319 4.14038" stroke="#3D2C2E" stroke-width="0.997289" stroke-linecap="round" stroke-linejoin="round"/>
<path d="M31.375 64.859C25.2994 64.859 19.4727 62.4155 15.1766 58.0662C10.8806 53.7168 8.46704 47.8179 8.46704 41.667" stroke="#3D2C2E" stroke-width="0.997289" stroke-linecap="round" stroke-linejoin="round"/>
<path d="M45.5324 50.5261C45.5323 54.3276 44.0406 57.9734 41.3854 60.6615C38.7303 63.3495 35.1291 64.8597 31.3741 64.8597" stroke="#3D2C2E" stroke-width="0.997289" stroke-linecap="round" stroke-linejoin="round"/>
<path d="M36.7834 41.667C37.9325 41.667 39.0703 41.8961 40.1319 42.3413C41.1935 42.7865 42.1581 43.439 42.9706 44.2616C44.6115 45.9228 45.5334 48.176 45.5334 50.5254" stroke="#3D2C2E" stroke-width="0.997289" stroke-linecap="round" stroke-linejoin="round"/>
<path d="M31.375 47.1423C31.375 45.6902 31.9449 44.2976 32.9591 43.2708C33.9733 42.2441 35.3489 41.6672 36.7833 41.6672" stroke="#3D2C2E" stroke-width="0.997289" stroke-linecap="round" stroke-linejoin="round"/>
<path d="M34.7173 50.526C34.2783 50.5261 33.8437 50.4386 33.4382 50.2686C33.0326 50.0985 32.6642 49.8493 32.3538 49.5351C32.0434 49.2209 31.7973 48.8478 31.6293 48.4373C31.4614 48.0267 31.375 47.5867 31.375 47.1423" stroke="#3D2C2E" stroke-width="0.997289" stroke-linecap="round" stroke-linejoin="round"/>
<path d="M36.7835 48.4324C36.7836 48.7071 36.7301 48.9792 36.6263 49.233C36.5225 49.4868 36.3703 49.7175 36.1784 49.9118C35.9865 50.106 35.7587 50.2601 35.508 50.3653C35.2573 50.4704 34.9885 50.5246 34.7172 50.5246" stroke="#3D2C2E" stroke-width="0.997289" stroke-linecap="round" stroke-linejoin="round"/>
<path d="M35.5074 47.1423C35.8457 47.1423 36.1701 47.2784 36.4093 47.5205C36.6485 47.7626 36.7829 48.0911 36.7829 48.4335" stroke="#3D2C2E" stroke-width="0.997289" stroke-linecap="round" stroke-linejoin="round"/>
<path d="M34.7173 47.9424C34.7173 47.7301 34.8006 47.5265 34.9489 47.3763C35.0973 47.2262 35.2984 47.1418 35.5081 47.1418" stroke="#3D2C2E" stroke-width="0.997289" stroke-linecap="round" stroke-linejoin="round"/>
<path d="M35.2014 48.4325C35.0729 48.4325 34.9496 48.3808 34.8588 48.2888C34.7679 48.1968 34.7168 48.072 34.7168 47.9419" stroke="#3D2C2E" stroke-width="0.997289" stroke-linecap="round" stroke-linejoin="round"/>
<path d="M35.5074 48.1226C35.5074 48.2048 35.4751 48.2836 35.4177 48.3417C35.3603 48.3999 35.2824 48.4325 35.2012 48.4325" stroke="#3D2C2E" stroke-width="0.997289" stroke-linecap="round" stroke-linejoin="round"/>
<path d="M35.3293 47.9424C35.3528 47.9424 35.376 47.9471 35.3976 47.9561C35.4193 47.9652 35.439 47.9785 35.4555 47.9953C35.4721 48.0121 35.4852 48.032 35.4942 48.0539C35.5032 48.0758 35.5078 48.0993 35.5078 48.123" stroke="#3D2C2E" stroke-width="0.997289" stroke-linecap="round" stroke-linejoin="round"/>
<path d="M35.2014 48.0719C35.2014 48.0376 35.2149 48.0047 35.2389 47.9805C35.2628 47.9563 35.2953 47.9426 35.3292 47.9426" stroke="#3D2C2E" stroke-width="0.997289" stroke-linecap="round" stroke-linejoin="round"/>
</g>
<defs>
<clipPath id="clip0_23_223">
<rect width="63" height="44" fill="white" transform="matrix(0 -1 -1 0 61 63)"/>
</clipPath>
<clipPath id="clip1_23_223">
<rect width="63" height="44" fill="white" transform="matrix(0 1 1 0 5 3)"/>
</clipPath>
</defs>
</svg>
